<svg width="10" height="10" viewBox="0 0 10 10" fill="none" xmlns="http://www.w3.org/2000/svg">
<path d="M9.99418 7.55397C9.90502 8.23149 9.57228 8.85339 9.05811 9.30352C8.54394 9.75365 7.88349 10.0012 7.20013 10C3.23006 10 4.5244e-06 6.76996 4.5244e-06 2.79993C-0.00122049 2.11656 0.246352 1.45612 0.696483 0.941956C1.14661 0.427787 1.76852 0.0950531 2.44605 0.00589888C2.61738 -0.0150209 2.79088 0.02003 2.94065 0.105819C3.09042 0.191608 3.20843 0.323534 3.27706 0.481903L4.33308 2.83943V2.84543C4.38562 2.96665 4.40732 3.09901 4.39624 3.23067C4.38516 3.36233 4.34164 3.48919 4.26958 3.59993C4.26058 3.61343 4.25108 3.62593 4.24108 3.63843L3.20006 4.87245C3.57457 5.63345 4.37058 6.42246 5.14159 6.79796L6.35861 5.76245C6.37056 5.75241 6.38309 5.74306 6.39611 5.73445C6.50676 5.66066 6.63407 5.61561 6.7665 5.60338C6.89894 5.59116 7.03234 5.61215 7.15463 5.66445L7.16113 5.66745L9.51667 6.72296C9.67532 6.79135 9.80757 6.90926 9.89364 7.05905C9.97971 7.20884 10.015 7.38247 9.99418 7.55397Z" fill="#1A73E8"/>
</svg>
