<svg width="24" height="24" viewBox="0 0 24 24" fill="none" xmlns="http://www.w3.org/2000/svg">
<path d="M16.5384 6.39209L12.0481 9.89641L7.45508 6.39209V6.39304L7.46063 6.39777V11.3048L11.9963 14.8848L16.5384 11.443V6.39209Z" fill="#F44336"/>
<path d="M17.7176 5.53979L16.5383 6.39219V11.4431L20.249 8.59423V6.87806C20.249 6.87806 19.7986 4.42693 17.7176 5.53979Z" fill="#FDD835"/>
<path d="M16.5383 11.4432V17.9943H19.3824C19.3824 17.9943 20.1916 17.911 20.2499 16.9885V8.59424L16.5383 11.4432Z" fill="#43A048"/>
<path d="M7.46084 18.0002V11.305L7.45508 11.3003L7.46084 18.0002Z" fill="#F44336"/>
<path d="M7.4551 6.3934L6.28234 5.54573C4.20135 4.43288 3.75 6.88306 3.75 6.88306V8.59922L7.4551 11.3004V6.3934Z" fill="#B71B1C"/>
<path d="M7.45508 6.39307V11.3001L7.46084 11.3048V6.3978L7.45508 6.39307Z" fill="#F44336"/>
<path d="M3.75 8.6001V16.9944C3.80734 17.9178 4.61754 18.0002 4.61754 18.0002H7.46158L7.4551 11.3003L3.75 8.6001Z" fill="#304FFE"/>
</svg>
