<svg width="30" height="28" viewBox="0 0 30 28" fill="none" xmlns="http://www.w3.org/2000/svg">
<path d="M2 14.1867L13.94 2.4324C14.0792 2.29532 14.2444 2.18657 14.4263 2.11238C14.6082 2.03819 14.8031 2 15 2C15.1969 2 15.3918 2.03819 15.5737 2.11238C15.7556 2.18657 15.9208 2.29532 16.06 2.4324L28 14.1867M5 11.2333V24.5233C5 25.3385 5.672 26 6.5 26H12V19.6011C12 18.786 12.672 18.1244 13.5 18.1244H16.5C17.328 18.1244 18 18.786 18 19.6011V26H23.5C24.328 26 25 25.3385 25 24.5233V11.2333M10 26H21" stroke="#A9EED1" stroke-width="3" stroke-linecap="round" stroke-linejoin="round"/>
</svg>
