<svg width="19" height="19" viewBox="0 0 19 19" fill="none" xmlns="http://www.w3.org/2000/svg">
<path d="M16.036 17.3244L12.2175 13.5048C11.8663 13.1536 11.8663 12.5841 12.2176 12.2328C12.5689 11.8815 13.1385 11.8815 13.4898 12.2329L17.3083 16.0525C17.6595 16.4038 17.6595 16.9732 17.3082 17.3245C16.9569 17.6758 16.3873 17.6758 16.036 17.3244Z" fill="#C2CCDE" fill-opacity="0.25"/>
<path d="M1.67902 5.72044C2.20754 3.74797 3.74821 2.2073 5.72068 1.67878C7.69315 1.15026 9.79774 1.71418 11.2417 3.15813C12.6856 4.60207 13.2496 6.70667 12.721 8.67913C12.1925 10.6516 10.6518 12.1923 8.67938 12.7208C6.70691 13.2493 4.60232 12.6854 3.15837 11.2414C1.71443 9.7975 1.1505 7.6929 1.67902 5.72044Z" fill="#C2CCDE" fill-opacity="0.25"/>
<path d="M11.2335 11.2493L12.2173 12.2331M12.2175 13.5048L16.036 17.3244C16.3873 17.6758 16.9569 17.6758 17.3082 17.3245C17.6595 16.9732 17.6595 16.4038 17.3083 16.0525L13.4898 12.2329C13.1385 11.8815 12.5689 11.8815 12.2176 12.2328C11.8663 12.5841 11.8663 13.1536 12.2175 13.5048ZM3.15837 11.2414C1.71443 9.7975 1.1505 7.6929 1.67902 5.72044C2.20754 3.74797 3.74821 2.2073 5.72068 1.67878C7.69315 1.15026 9.79774 1.71418 11.2417 3.15813C12.6856 4.60207 13.2496 6.70667 12.721 8.67913C12.1925 10.6516 10.6518 12.1923 8.67938 12.7208C6.70691 13.2493 4.60232 12.6854 3.15837 11.2414Z" stroke="#414141" stroke-linecap="round" stroke-linejoin="round"/>
</svg>
