<svg width="28" height="29" viewBox="0 0 28 29" fill="none" xmlns="http://www.w3.org/2000/svg">
<path d="M16.8444 0C17.0616 6.90991e-06 17.2733 0.0696079 17.4488 0.19878C17.6244 0.327951 17.7548 0.510027 17.8212 0.718786L18.95 4.25886C19.424 4.49293 19.8776 4.756 20.3106 5.05221L23.9143 4.26921C24.1267 4.22342 24.3481 4.24689 24.5466 4.33623C24.745 4.42558 24.9102 4.57618 25.0184 4.76636L27.8627 9.73571C27.9714 9.92578 28.0174 10.1458 27.9941 10.3639C27.9709 10.5821 27.8796 10.7872 27.7334 10.9496L25.2605 13.7046C25.2965 14.2329 25.2965 14.763 25.2605 15.2913L27.7334 18.0504C27.8796 18.2128 27.9709 18.4179 27.9941 18.6361C28.0174 18.8542 27.9714 19.0742 27.8627 19.2643L25.0184 24.2357C24.9099 24.4255 24.7445 24.5757 24.5462 24.6646C24.3478 24.7536 24.1265 24.7768 23.9143 24.7308L20.3106 23.9478C19.8796 24.2419 19.424 24.5071 18.952 24.7411L17.8212 28.2812C17.7548 28.49 17.6244 28.672 17.4488 28.8012C17.2733 28.9304 17.0616 29 16.8444 29H11.1556C10.9384 29 10.7267 28.9304 10.5512 28.8012C10.3756 28.672 10.2452 28.49 10.1788 28.2812L9.0521 24.7432C8.57931 24.5099 8.12329 24.2434 7.68738 23.9457L4.08573 24.7308C3.87326 24.7766 3.65186 24.7531 3.45345 24.6638C3.25503 24.5744 3.08983 24.4238 2.98164 24.2336L0.137264 19.2643C0.0286493 19.0742 -0.0173566 18.8542 0.00588011 18.6361C0.0291168 18.4179 0.120395 18.2128 0.266554 18.0504L2.73948 15.2913C2.70366 14.7644 2.70366 14.2356 2.73948 13.7087L0.266554 10.9496C0.120395 10.7872 0.0291168 10.5821 0.00588011 10.3639C-0.0173566 10.1458 0.0286493 9.92578 0.137264 9.73571L2.98164 4.76429C3.09013 4.57449 3.25546 4.42431 3.45385 4.33535C3.65224 4.24639 3.87348 4.22324 4.08573 4.26921L7.68738 5.05429C8.12245 4.75807 8.57804 4.49086 9.0521 4.25679L10.1808 0.718786C10.2471 0.5107 10.3769 0.329106 10.5516 0.199996C10.7263 0.0708872 10.937 0.00088174 11.1536 0H16.8423H16.8444ZM16.0933 2.07143H11.9067L10.7411 5.73164L9.95508 6.119C9.56868 6.30986 9.19567 6.52717 8.83867 6.76943L8.11218 7.26657L4.38536 6.45457L2.29209 10.1169L4.84711 12.9713L4.78554 13.8496C4.75605 14.2827 4.75605 14.7173 4.78554 15.1504L4.84711 16.0287L2.28799 18.8831L4.3833 22.5454L8.11013 21.7355L8.83662 22.2306C9.19362 22.4728 9.56663 22.6901 9.95302 22.881L10.739 23.2684L11.9067 26.9286H16.0974L17.2671 23.2663L18.0511 22.881C18.4371 22.6906 18.8094 22.4733 19.1654 22.2306L19.8899 21.7355L23.6187 22.5454L25.712 18.8831L23.1549 16.0287L23.2165 15.1504C23.2461 14.7166 23.2461 14.2813 23.2165 13.8475L23.1549 12.9692L25.7141 10.1169L23.6187 6.45457L19.8899 7.26243L19.1654 6.76943C18.8094 6.52669 18.4371 6.30935 18.0511 6.119L17.2671 5.73371L16.0953 2.07143H16.0933ZM14 8.28571C15.6328 8.28571 17.1988 8.94043 18.3534 10.1058C19.508 11.2712 20.1567 12.8519 20.1567 14.5C20.1567 16.1481 19.508 17.7288 18.3534 18.8942C17.1988 20.0596 15.6328 20.7143 14 20.7143C12.3672 20.7143 10.8012 20.0596 9.64659 18.8942C8.49199 17.7288 7.84334 16.1481 7.84334 14.5C7.84334 12.8519 8.49199 11.2712 9.64659 10.1058C10.8012 8.94043 12.3672 8.28571 14 8.28571ZM14 10.3571C12.9114 10.3571 11.8675 10.7936 11.0977 11.5706C10.328 12.3475 9.89556 13.4012 9.89556 14.5C9.89556 15.5988 10.328 16.6525 11.0977 17.4294C11.8675 18.2064 12.9114 18.6429 14 18.6429C15.0886 18.6429 16.1325 18.2064 16.9023 17.4294C17.672 16.6525 18.1044 15.5988 18.1044 14.5C18.1044 13.4012 17.672 12.3475 16.9023 11.5706C16.1325 10.7936 15.0886 10.3571 14 10.3571Z" fill="#A9EED1"/>
</svg>
